<svg height="512pt" viewBox="0 -38 512 512" width="512pt" xmlns="http://www.w3.org/2000/svg"><path d="m241 35.511719-82.480469-35.347657-.074219 395.519532 82.554688 35.378906zm0 0"/><path d="m353.074219.332031-82.074219 35.175781v395.554688l82.527344-35.363281zm0 0"/><path d="m128.519531 0-114.054687 45.621094c-8.789063 3.523437-14.464844 11.914062-14.464844 21.378906v345.433594c0 7.640625 3.777344 14.765625 10.15625 19.097656 3.828125 2.574219 8.28125 3.9375 12.878906 3.9375 2.929688 0 5.796875-.550781 8.558594-1.644531l96.847656-38.738281zm0 0"/><path d="m498.707031 54.160156-115.632812-53.960937.453125 394.871093 96.882812 38.75c2.726563 1.09375 5.605469 1.644532 8.554688 1.644532 4.597656 0 9.046875-1.359375 12.933594-3.972656 6.324218-4.292969 10.101562-11.417969 10.101562-19.0625v-337.394532c0-8.917968-5.214844-17.109375-13.292969-20.875zm0 0"/></svg>